PathFileType	4	(X/Y/Z)	SUBJ11_2_walk_RCNL2025.trc
DataRate	CameraRate	NumFrames	NumMarkers	Units	OrigDataRate	OrigDataStartFrame	OrigNumFrames
100	100	7	25	mm	100	359	478
Frame#	Time	R_Shoulder			L_Shoulder			C7			J_Notch			R_Elbow			L_Elbow			R_Wrist			L_Wrist			R_Asis			L_Asis			Sacral			Thoracic			Sternum			R_Thigh_Lateral			R_Knee_Lateral			R_Shank_Lateral			R_Ankle_Lateral			R_Heel			R_Toe			L_Thigh_Lateral			L_Knee_Lateral			L_Shank_Lateral			L_Ankle_Lateral			L_Heel			L_Toe		
		X1	Y1	Z1	X2	Y2	Z2	X3	Y3	Z3	X4	Y4	Z4	X5	Y5	Z5	X6	Y6	Z6	X7	Y7	Z7	X8	Y8	Z8	X9	Y9	Z9	X10	Y10	Z10	X11	Y11	Z11	X12	Y12	Z12	X13	Y13	Z13	X14	Y14	Z14	X15	Y15	Z15	X16	Y16	Z16	X17	Y17	Z17	X18	Y18	Z18	X19	Y19	Z19	X20	Y20	Z20	X21	Y21	Z21	X22	Y22	Z22	X23	Y23	Z23	X24	Y24	Z24	X25	Y25	Z25
359	3.58000000	1758.670776	1424.391846	71.660683	1765.367554	1390.710938	-323.550690	1718.687134	1454.013184	-128.851135	1866.994995	1354.024536	-112.490677	1724.249146	1091.456909	185.661819	1689.417725	1051.036865	-381.554871	1850.260376	861.525604	187.631966	1693.638672	787.035858	-364.851868	1820.898193	929.424500	56.578579	1849.628662	931.562012	-236.373459	1661.069702	953.706543	-113.206192	1644.607544	1271.003418	-119.720001	1934.107422	1156.434448	-96.098602	1711.709717	589.984009	110.685982	1686.164429	443.086426	52.297340	1533.897095	299.169403	70.326317	1393.835571	162.999466	-13.764309	1354.477295	198.108841	-66.769913	1464.477051	46.914722	-52.576965	1869.248779	599.993591	-314.453247	1932.873535	460.623779	-226.588470	1953.233154	249.438690	-254.037704	1955.156860	58.633446	-180.605270	1898.820801	50.502476	-128.925827	2089.546875	41.178799	-147.476349
360	3.59000000	1770.670288	1426.933838	70.460999	1776.956299	1392.543823	-324.602509	1730.051270	1455.921143	-130.117752	1878.672974	1356.374512	-113.707588	1733.549927	1093.547119	183.134995	1705.864868	1051.722168	-382.756287	1853.488159	860.226746	185.538376	1715.669739	787.862396	-365.412811	1833.712769	931.097717	55.144611	1861.430786	934.105896	-237.709595	1673.188477	955.521301	-113.675529	1656.396118	1272.744995	-120.337776	1945.998047	1158.730347	-97.172974	1731.927856	589.987549	111.386673	1709.814209	443.041412	53.965187	1554.312378	303.772827	71.665634	1410.178467	172.403473	-12.222685	1373.656372	209.906937	-65.621460	1473.083008	50.487366	-51.240196	1876.665649	600.907898	-315.597382	1939.560547	460.626007	-227.762787	1956.573730	249.098358	-254.620300	1955.513428	58.528702	-180.642029	1899.063599	50.823662	-128.998947	2089.811523	41.158298	-147.856354
361	3.60000000	1782.482300	1429.389526	69.412567	1788.411377	1394.541504	-325.555084	1741.278076	1457.928955	-131.162476	1890.171631	1358.751099	-114.801567	1742.709717	1095.535034	180.700638	1722.258423	1052.609497	-383.972961	1856.433899	858.962250	183.348763	1738.063293	789.030334	-365.897598	1846.356323	932.978760	53.800846	1873.022583	936.631836	-239.069595	1685.098389	957.427734	-114.236771	1668.001343	1274.635986	-120.909462	1957.602051	1160.991333	-98.157494	1751.871094	590.412231	111.866867	1733.719849	443.394897	55.467976	1575.615234	308.364136	72.863586	1427.705933	181.633652	-10.863189	1393.685059	220.953522	-64.700111	1483.995483	55.046310	-49.333160	1883.098145	601.295715	-316.286469	1945.402222	460.505219	-228.701233	1959.341309	248.750092	-255.064880	1955.779419	58.442253	-180.615936	1899.235352	51.064758	-128.987427	2089.989990	41.230907	-148.115707
362	3.61000000	1794.089722	1431.726562	68.515350	1799.731079	1396.675781	-326.425873	1752.393555	1460.028076	-132.019730	1901.498779	1361.140137	-115.784615	1751.741089	1097.388916	178.361862	1738.608032	1053.678711	-385.196198	1859.151672	857.737061	181.069870	1760.757629	790.544037	-366.296478	1858.858765	935.063293	52.545303	1884.403076	939.125854	-240.436829	1696.823120	959.414062	-114.866241	1679.432739	1276.660645	-121.474831	1968.968872	1163.233765	-99.077713	1771.444580	591.318176	112.133583	1757.698975	444.253540	56.810833	1597.598145	312.947418	73.901085	1446.382568	190.471725	-9.753420	1414.346558	230.914856	-64.135948	1497.527588	60.382954	-46.864052	1888.910156	601.400146	-316.633453	1950.551636	460.329712	-229.402405	1961.635620	248.417419	-255.400528	1955.992676	58.374165	-180.541428	1899.363770	51.256016	-128.916840	2090.121338	41.324780	-148.264572
363	3.62000000	1805.484985	1433.932739	67.761253	1810.919312	1398.929932	-327.230011	1763.421997	1462.210327	-132.731384	1912.668457	1363.533203	-116.670662	1760.660156	1099.099731	176.108978	1754.927368	1054.923828	-386.413849	1861.696655	856.571808	178.709312	1783.692627	792.419067	-366.596405	1871.246460	937.346436	51.358223	1895.578979	941.580200	-241.797928	1708.386230	961.468750	-115.530617	1690.704590	1278.796021	-122.070015	1980.142456	1165.477173	-99.965164	1790.672729	592.708679	112.220352	1781.610596	445.670380	57.993176	1620.072998	317.506805	74.764687	1466.160034	198.660431	-8.912640	1435.487427	239.509384	-63.983929	1513.851562	66.192154	-43.907898	1894.402588	601.471985	-316.768829	1955.146606	460.159760	-229.880066	1963.548950	248.122711	-255.651871	1956.178345	58.325771	-180.434875	1899.466553	51.420822	-128.813278	2090.227295	41.398006	-148.323700
364	3.63000000	1816.668823	1436.008789	67.135750	1821.989014	1401.295654	-327.978760	1774.382690	1464.462036	-133.340042	1923.699219	1365.924072	-117.472969	1769.490601	1100.678101	173.926498	1771.228027	1056.349121	-387.614105	1864.124695	855.497192	176.275299	1806.808533	794.675171	-366.781082	1883.540039	939.815857	50.209179	1906.561768	943.993225	-243.142868	1719.813477	963.579407	-116.188210	1701.837646	1281.011230	-122.721779	1991.160156	1167.738281	-100.851410	1809.658569	594.539246	112.173553	1805.357544	447.638824	59.007244	1642.884521	321.989349	75.450874	1486.988281	205.931488	-8.307586	1457.033447	246.536942	-64.195175	1532.953613	72.108841	-40.602036	1899.824097	601.702637	-316.812256	1959.294189	460.033447	-230.157333	1965.164429	247.881470	-255.835281	1956.350220	58.297192	-180.312851	1899.553223	51.573112	-128.697113	2090.319580	41.432732	-148.318512
365	3.64000000	1827.649902	1437.962402	66.620346	1832.964233	1403.766846	-328.678802	1785.287598	1466.761353	-133.883331	1934.611572	1368.305176	-118.202194	1778.266113	1102.147583	171.799881	1787.513794	1057.963013	-388.787933	1866.489868	854.545166	173.774734	1830.048096	797.330902	-366.835526	1895.752686	942.447449	49.065468	1917.365356	946.368774	-244.465881	1731.132568	965.728210	-116.797272	1712.855835	1283.270386	-123.443680	2002.053833	1170.026978	-101.762115	1828.529541	596.740173	112.041374	1828.885010	450.102112	59.840221	1665.934814	326.286591	75.970375	1508.823730	212.033905	-7.864083	1478.984741	251.888031	-64.628777	1554.636597	77.751091	-37.134678	1905.371948	602.192261	-316.853363	1963.063110	459.963074	-230.263962	1966.553223	247.701279	-255.959732	1956.513428	58.285847	-180.190018	1899.627563	51.718735	-128.582520	2090.403809	41.428375	-148.272491
